<svg width="68" height="68" viewBox="0 0 68 68" fill="none" xmlns="http://www.w3.org/2000/svg">
<g filter="url(#filter0_d_1:13)">
<circle cx="34" cy="34" r="32" fill="white"/>
<path d="M17.7257 30.944C17.7257 29.8395 18.6211 28.944 19.7257 28.944H25.9701C26.4635 28.944 26.9394 28.7617 27.3065 28.432L33.0408 23.2821C34.3283 22.1258 36.3771 23.0395 36.3771 24.7701V43.4897C36.3771 45.1777 34.4151 46.1065 33.1095 45.0367L27.2892 40.2674C26.9317 39.9744 26.4838 39.8144 26.0216 39.8144H19.7257C18.6211 39.8144 17.7257 38.9189 17.7257 37.8144V30.944Z" fill="#C4C4C4"/>
<path d="M39.6686 23.2114C41.0854 23.2114 42.4883 23.4905 43.7972 24.0327C45.1061 24.5748 46.2954 25.3695 47.2972 26.3713C48.2991 27.3731 49.0937 28.5625 49.6359 29.8714C50.1781 31.1803 50.4571 32.5832 50.4571 34C50.4571 35.4168 50.1781 36.8197 49.6359 38.1286C49.0937 39.4375 48.2991 40.6269 47.2972 41.6287C46.2954 42.6305 45.1061 43.4252 43.7972 43.9673C42.4883 44.5095 41.0854 44.7886 39.6686 44.7886L39.6686 42.6309C40.802 42.6309 41.9243 42.4076 42.9715 41.9739C44.0186 41.5401 44.9701 40.9044 45.7715 40.1029C46.573 39.3015 47.2087 38.35 47.6425 37.3029C48.0762 36.2557 48.2994 35.1334 48.2994 34C48.2994 32.8666 48.0762 31.7443 47.6424 30.6971C47.2087 29.65 46.573 28.6985 45.7715 27.8971C44.9701 27.0956 44.0186 26.4599 42.9715 26.0261C41.9243 25.5924 40.802 25.3691 39.6686 25.3691L39.6686 23.2114Z" fill="#C4C4C4"/>
<path d="M39.6686 29.4286C40.2689 29.4286 40.8634 29.5468 41.418 29.7765C41.9726 30.0063 42.4766 30.343 42.9011 30.7675C43.3256 31.192 43.6623 31.696 43.892 32.2506C44.1218 32.8052 44.24 33.3997 44.24 34C44.24 34.6003 44.1218 35.1948 43.892 35.7494C43.6623 36.304 43.3256 36.808 42.9011 37.2325C42.4766 37.657 41.9726 37.9937 41.418 38.2234C40.8634 38.4532 40.2689 38.5714 39.6686 38.5714L39.6686 34L39.6686 29.4286Z" fill="#C4C4C4"/>
</g>
<defs>
<filter id="filter0_d_1:13" x="0" y="0" width="68" height="68" filterUnits="userSpaceOnUse" color-interpolation-filters="sRGB">
<feFlood flood-opacity="0" result="BackgroundImageFix"/>
<feColorMatrix in="SourceAlpha" type="matrix" values="0 0 0 0 0 0 0 0 0 0 0 0 0 0 0 0 0 0 127 0" result="hardAlpha"/>
<feOffset/>
<feGaussianBlur stdDeviation="1"/>
<feComposite in2="hardAlpha" operator="out"/>
<feColorMatrix type="matrix" values="0 0 0 0 0 0 0 0 0 0 0 0 0 0 0 0 0 0 0.25 0"/>
<feBlend mode="normal" in2="BackgroundImageFix" result="effect1_dropShadow_1:13"/>
<feBlend mode="normal" in="SourceGraphic" in2="effect1_dropShadow_1:13" result="shape"/>
</filter>
</defs>
</svg>
